<?xml version="1.0" encoding="UTF-8"?>
<svg xmlns="http://www.w3.org/2000/svg" xmlns:xlink="http://www.w3.org/1999/xlink" width="2338px" height="1762px" viewBox="0 0 1754 1322" version="1.1">
<g id="surface1">
<path style=" stroke:none;fill-rule:evenodd;fill:rgb(12.156863%,12.156863%,12.156863%);fill-opacity:1;" d="M 1753.664062 786.886719 C 1752.488281 759.535156 1736.175781 747.460938 1721.296875 745.28125 C 1719.28125 744.988281 1717.257812 744.742188 1715.226562 744.546875 C 1712.398438 732.066406 1709.328125 719.628906 1706.347656 707.5625 C 1703.605469 696.433594 1655.511719 489.316406 1648.984375 482.53125 C 1644.40625 477.777344 1636.183594 472.097656 1623.015625 472.097656 C 1622.027344 472.097656 1620.980469 472.132812 1619.875 472.199219 C 1616.414062 472.414062 1508.710938 481.121094 1453.621094 486.355469 C 1450.90625 486.492188 1448.195312 486.671875 1445.472656 486.96875 C 1443.738281 487.148438 1442.394531 487.101562 1441.273438 486.859375 C 1429.488281 453.171875 1403.964844 397.164062 1388.105469 371.101562 C 1387.738281 370.496094 1363.9375 335.007812 1351.46875 318.347656 C 1315.25 268.628906 1272.15625 225.105469 1222.199219 187.628906 C 1188.238281 162.164062 1151.789062 141.074219 1113.957031 122.1875 C 1104.101562 117.269531 1104.289062 117.875 1109.46875 108.550781 C 1116.832031 95.246094 1123.253906 81.410156 1130.800781 68.199219 C 1133.636719 63.253906 1132.761719 61.761719 1127.992188 59.695312 C 1055.726562 28.402344 979.421875 7.324219 900.730469 1.703125 C 834.402344 -3.035156 766.296875 2.183594 701.371094 16.46875 C 685.152344 20.039062 669.230469 24.703125 653.375 29.621094 C 598.34375 44.730469 561 60.046875 561 60.046875 L 591.195312 118.589844 C 589.949219 119.558594 587.992188 120.546875 585.039062 121.96875 C 528.464844 149.3125 476.476562 183.355469 430.207031 226.121094 C 426.199219 229.824219 422.242188 233.566406 418.332031 237.347656 C 349.363281 302.367188 290.910156 392.421875 256.796875 483.0625 C 183.964844 475.976562 53.429688 462.382812 44.460938 462.382812 C 28.886719 462.382812 16.925781 466.996094 8.90625 476.105469 C 1.71875 484.269531 -0.492188 494.34375 0.203125 504.949219 C 1.234375 520.546875 2.617188 580.332031 12.25 590.433594 C 17.796875 596.25 26.792969 598.871094 34.550781 599.796875 C 33.554688 625.878906 34.730469 733.9375 35.027344 745.710938 C 27.371094 746.667969 12.601562 748.601562 4.292969 758.910156 C -3.664062 768.78125 2.75 850.074219 6.097656 858.304688 C 14.910156 879.953125 33.160156 879.785156 46.582031 879.785156 C 79.859375 879.785156 223.722656 864.078125 232.964844 860.296875 C 233.742188 859.976562 234.503906 859.628906 235.25 859.246094 C 236.832031 858.429688 238.972656 857.140625 241.238281 855.296875 L 251.472656 887.558594 C 332.996094 1139.632812 569.550781 1321.949219 848.726562 1321.949219 C 1132.210938 1321.949219 1371.757812 1133.960938 1449.648438 875.835938 C 1452.210938 863.8125 1453.128906 861.410156 1453.433594 855.496094 C 1465.410156 855.492188 1476.699219 855.484375 1476.699219 855.484375 C 1482.777344 855.480469 1488.691406 853.5625 1493.613281 850.003906 C 1502.570312 843.53125 1507.726562 833.308594 1507.929688 821.757812 C 1510.515625 811.152344 1511.960938 800.90625 1513.367188 790.996094 C 1513.710938 788.578125 1514.046875 786.195312 1514.390625 783.855469 C 1519.761719 784.183594 1525.351562 784.457031 1531.226562 784.683594 C 1531.808594 788.265625 1532.449219 791.769531 1533.078125 795.238281 C 1534.398438 802.488281 1535.644531 809.339844 1536.171875 815.796875 C 1539.707031 859.117188 1562.167969 866.816406 1576.242188 867.28125 C 1578.960938 867.628906 1585.609375 868.511719 1592.578125 869.4375 C 1673.328125 880.175781 1705.15625 883.976562 1714.195312 883.976562 C 1717.113281 883.976562 1726.847656 886.128906 1731.910156 883.976562 C 1758.066406 872.867188 1754.097656 797.050781 1753.664062 786.886719 Z M 1753.664062 786.886719 "/>
<path style=" stroke:none;fill-rule:evenodd;fill:rgb(97.647059%,84.313725%,13.72549%);fill-opacity:1;" d="M 1448.421875 693.863281 C 1448.421875 1025.445312 1179.671875 1294.246094 848.144531 1294.246094 C 516.613281 1294.246094 247.859375 1025.445312 247.859375 693.863281 C 247.859375 362.285156 516.613281 93.484375 848.144531 93.484375 C 1179.671875 93.484375 1448.421875 362.285156 1448.421875 693.863281 Z M 1448.421875 693.863281 "/>
<path style=" stroke:none;fill-rule:nonzero;fill:rgb(99.607843%,99.607843%,99.607843%);fill-opacity:1;" d="M 1393.933594 693.867188 C 1393.933594 513.953125 1307.53125 354.242188 1173.972656 253.933594 C 1083.101562 186.667969 970.769531 146.832031 849.296875 146.832031 C 547.710938 146.832031 302.355469 392.230469 302.355469 693.863281 C 302.355469 995.496094 547.710938 1240.894531 849.296875 1240.894531 C 970.773438 1240.894531 1083.109375 1201.054688 1173.984375 1133.785156 C 1307.535156 1033.480469 1393.933594 873.769531 1393.933594 693.867188 Z M 1393.933594 693.867188 "/>
<path style=" stroke:none;fill-rule:nonzero;fill:rgb(12.156863%,12.156863%,12.156863%);fill-opacity:1;" d="M 1172.152344 1132.863281 C 1081.46875 1199.992188 969.371094 1239.746094 848.144531 1239.746094 C 547.195312 1239.746094 302.351562 994.863281 302.351562 693.863281 C 302.351562 392.863281 547.195312 147.984375 848.144531 147.984375 C 969.363281 147.984375 1081.464844 187.730469 1172.144531 254.859375 C 1306.59375 354.378906 1393.933594 514.101562 1393.933594 693.863281 C 1393.933594 873.617188 1306.597656 1033.339844 1172.152344 1132.863281 Z M 848.144531 133.53125 C 539.222656 133.53125 287.898438 384.894531 287.898438 693.863281 C 287.898438 1002.835938 539.222656 1254.199219 848.144531 1254.199219 C 1157.0625 1254.199219 1408.382812 1002.835938 1408.382812 693.863281 C 1408.382812 384.894531 1157.0625 133.53125 848.144531 133.53125 Z M 848.144531 133.53125 "/>
<path style=" stroke:none;fill-rule:evenodd;fill:rgb(12.156863%,12.156863%,12.156863%);fill-opacity:1;" d="M 1400.65625 874.832031 C 1397.621094 873.84375 1395.972656 870.625 1396.976562 867.644531 C 1398.007812 864.671875 1401.046875 862.925781 1404.144531 863.855469 C 1407.164062 864.757812 1409.058594 868.054688 1408.007812 871.097656 C 1406.980469 874.148438 1403.6875 875.820312 1400.65625 874.832031 Z M 1400.65625 874.832031 "/>
<path style=" stroke:none;fill-rule:evenodd;fill:rgb(12.156863%,12.156863%,12.156863%);fill-opacity:1;" d="M 1389.792969 905.347656 C 1386.820312 904.191406 1385.335938 900.878906 1386.484375 897.953125 C 1387.632812 895.023438 1391.003906 893.535156 1393.996094 894.617188 C 1397.007812 895.710938 1398.484375 899.015625 1397.308594 902.015625 C 1396.136719 905.011719 1392.769531 906.503906 1389.792969 905.347656 Z M 1389.792969 905.347656 "/>
<path style=" stroke:none;fill-rule:evenodd;fill:rgb(12.156863%,12.156863%,12.156863%);fill-opacity:1;" d="M 1377.273438 935.21875 C 1374.367188 933.902344 1373.054688 930.503906 1374.347656 927.636719 C 1375.636719 924.769531 1379.0625 923.460938 1382 924.710938 C 1384.9375 925.964844 1386.25 929.359375 1384.929688 932.296875 C 1383.609375 935.230469 1380.183594 936.542969 1377.273438 935.21875 Z M 1377.273438 935.21875 "/>
<path style=" stroke:none;fill-rule:evenodd;fill:rgb(12.156863%,12.156863%,12.156863%);fill-opacity:1;" d="M 1363.140625 964.363281 C 1360.308594 962.886719 1359.171875 959.414062 1360.601562 956.609375 C 1362.027344 953.808594 1365.507812 952.683594 1368.367188 954.097656 C 1371.234375 955.511719 1372.371094 958.980469 1370.910156 961.851562 C 1369.445312 964.71875 1365.96875 965.84375 1363.140625 964.363281 Z M 1363.140625 964.363281 "/>
<path style=" stroke:none;fill-rule:evenodd;fill:rgb(12.156863%,12.156863%,12.156863%);fill-opacity:1;" d="M 1347.4375 992.695312 C 1344.691406 991.058594 1343.734375 987.523438 1345.296875 984.792969 C 1346.855469 982.0625 1350.375 981.121094 1353.15625 982.691406 C 1355.9375 984.261719 1356.894531 987.800781 1355.296875 990.597656 C 1353.695312 993.390625 1350.179688 994.328125 1347.433594 992.695312 Z M 1347.4375 992.695312 "/>
<path style=" stroke:none;fill-rule:evenodd;fill:rgb(12.156863%,12.156863%,12.156863%);fill-opacity:1;" d="M 1330.210938 1020.128906 C 1327.5625 1018.347656 1326.78125 1014.75 1328.476562 1012.097656 C 1330.167969 1009.445312 1333.714844 1008.691406 1336.402344 1010.414062 C 1339.09375 1012.136719 1339.867188 1015.730469 1338.136719 1018.445312 C 1336.40625 1021.160156 1332.855469 1021.914062 1330.210938 1020.128906 Z M 1330.210938 1020.128906 "/>
<path style=" stroke:none;fill-rule:evenodd;fill:rgb(12.156863%,12.156863%,12.156863%);fill-opacity:1;" d="M 1311.371094 1046.480469 C 1308.792969 1044.527344 1308.402344 1041.035156 1310.199219 1038.453125 C 1312.011719 1035.882812 1315.585938 1035.316406 1318.171875 1037.183594 C 1320.757812 1039.054688 1321.351562 1042.695312 1319.492188 1045.324219 C 1317.648438 1047.96875 1313.882812 1048.382812 1311.371094 1046.480469 Z M 1311.371094 1046.480469 "/>
<path style=" stroke:none;fill-rule:evenodd;fill:rgb(12.156863%,12.156863%,12.156863%);fill-opacity:1;" d="M 1291.109375 1071.757812 C 1288.675781 1069.691406 1288.363281 1066.085938 1290.417969 1063.703125 C 1292.519531 1061.355469 1296.003906 1060.898438 1298.511719 1062.929688 C 1300.96875 1064.914062 1301.46875 1068.675781 1299.324219 1071.078125 C 1297.222656 1073.519531 1293.546875 1073.824219 1291.109375 1071.757812 Z M 1291.109375 1071.757812 "/>
<path style=" stroke:none;fill-rule:evenodd;fill:rgb(12.156863%,12.156863%,12.156863%);fill-opacity:1;" d="M 1269.515625 1095.894531 C 1267.199219 1093.695312 1267.070312 1090.066406 1269.238281 1087.785156 C 1271.402344 1085.503906 1275.074219 1085.390625 1277.441406 1087.535156 C 1279.808594 1089.675781 1279.933594 1093.304688 1277.71875 1095.640625 C 1275.503906 1097.980469 1271.832031 1098.085938 1269.515625 1095.894531 Z M 1269.515625 1095.894531 "/>
<path style=" stroke:none;fill-rule:evenodd;fill:rgb(12.156863%,12.156863%,12.156863%);fill-opacity:1;" d="M 1246.640625 1118.824219 C 1244.445312 1116.503906 1244.511719 1112.859375 1246.78125 1110.683594 C 1249.050781 1108.503906 1252.714844 1108.582031 1254.957031 1110.851562 C 1257.207031 1113.121094 1257.140625 1116.765625 1254.816406 1118.996094 C 1252.492188 1121.222656 1248.832031 1121.148438 1246.640625 1118.824219 Z M 1246.640625 1118.824219 "/>
<path style=" stroke:none;fill-rule:evenodd;fill:rgb(12.156863%,12.156863%,12.156863%);fill-opacity:1;" d="M 1222.554688 1140.484375 C 1220.496094 1138.042969 1220.746094 1134.394531 1223.117188 1132.328125 C 1225.492188 1130.261719 1229.128906 1130.523438 1231.246094 1132.914062 C 1233.359375 1135.304688 1233.113281 1138.957031 1230.683594 1141.070312 C 1228.257812 1143.1875 1224.617188 1142.921875 1222.554688 1140.484375 Z M 1222.554688 1140.484375 "/>
<path style=" stroke:none;fill-rule:evenodd;fill:rgb(12.156863%,12.156863%,12.156863%);fill-opacity:1;" d="M 1197.328125 1160.800781 C 1195.40625 1158.25 1195.847656 1154.601562 1198.316406 1152.65625 C 1200.78125 1150.707031 1204.390625 1151.15625 1206.367188 1153.65625 C 1208.351562 1156.160156 1207.910156 1159.808594 1205.382812 1161.804688 C 1202.855469 1163.800781 1199.25 1163.351562 1197.328125 1160.800781 Z M 1197.328125 1160.800781 "/>
<path style=" stroke:none;fill-rule:evenodd;fill:rgb(12.156863%,12.156863%,12.156863%);fill-opacity:1;" d="M 1170.964844 1179.617188 C 1169.1875 1176.964844 1169.914062 1173.476562 1172.445312 1171.601562 C 1175.003906 1169.773438 1178.566406 1170.40625 1180.40625 1173.015625 C 1182.242188 1175.625 1181.613281 1179.257812 1178.992188 1181.128906 C 1176.402344 1183.046875 1172.742188 1182.269531 1170.964844 1179.617188 Z M 1170.964844 1179.617188 "/>
<path style=" stroke:none;fill-rule:evenodd;fill:rgb(12.156863%,12.156863%,12.156863%);fill-opacity:1;" d="M 1143.566406 1196.890625 C 1141.9375 1194.144531 1142.824219 1190.640625 1145.546875 1189.066406 C 1148.242188 1187.449219 1151.714844 1188.203125 1153.417969 1190.925781 C 1155.097656 1193.617188 1154.3125 1197.289062 1151.550781 1198.945312 C 1148.769531 1200.558594 1145.191406 1199.636719 1143.566406 1196.890625 Z M 1143.566406 1196.890625 "/>
<path style=" stroke:none;fill-rule:evenodd;fill:rgb(12.156863%,12.156863%,12.156863%);fill-opacity:1;" d="M 1115.257812 1212.628906 C 1113.785156 1209.796875 1114.859375 1206.332031 1117.65625 1204.890625 C 1120.445312 1203.445312 1123.972656 1204.574219 1125.492188 1207.335938 C 1127.046875 1210.171875 1125.960938 1213.609375 1123.101562 1215.09375 C 1120.238281 1216.566406 1116.726562 1215.464844 1115.253906 1212.628906 Z M 1115.257812 1212.628906 "/>
<path style=" stroke:none;fill-rule:evenodd;fill:rgb(12.156863%,12.156863%,12.156863%);fill-opacity:1;" d="M 1086.128906 1226.789062 C 1084.816406 1223.878906 1086.078125 1220.460938 1088.941406 1219.160156 C 1091.804688 1217.859375 1095.238281 1219.140625 1096.617188 1222.019531 C 1097.996094 1224.902344 1096.738281 1228.316406 1093.808594 1229.648438 C 1090.875 1230.980469 1087.4375 1229.699219 1086.128906 1226.789062 Z M 1086.128906 1226.789062 "/>
<path style=" stroke:none;fill-rule:evenodd;fill:rgb(12.156863%,12.156863%,12.156863%);fill-opacity:1;" d="M 1056.265625 1239.3125 C 1055.121094 1236.332031 1056.5625 1232.976562 1059.484375 1231.816406 C 1062.40625 1230.65625 1065.757812 1232.113281 1066.972656 1235.066406 C 1068.183594 1238.019531 1066.746094 1241.378906 1063.757812 1242.5625 C 1060.761719 1243.75 1057.40625 1242.292969 1056.265625 1239.3125 Z M 1056.265625 1239.3125 "/>
<path style=" stroke:none;fill-rule:evenodd;fill:rgb(12.156863%,12.156863%,12.156863%);fill-opacity:1;" d="M 1025.746094 1250.160156 C 1024.769531 1247.121094 1026.394531 1243.835938 1029.371094 1242.824219 C 1032.34375 1241.8125 1035.605469 1243.4375 1036.652344 1246.453125 C 1037.699219 1249.46875 1036.074219 1252.757812 1033.027344 1253.792969 C 1029.980469 1254.828125 1026.71875 1253.203125 1025.746094 1250.164062 Z M 1025.746094 1250.160156 "/>
<path style=" stroke:none;fill-rule:evenodd;fill:rgb(12.156863%,12.156863%,12.156863%);fill-opacity:1;" d="M 994.671875 1259.296875 C 993.867188 1256.207031 995.667969 1253 998.691406 1252.136719 C 1001.714844 1251.273438 1004.875 1253.066406 1005.75 1256.136719 C 1006.625 1259.203125 1004.824219 1262.410156 1001.730469 1263.296875 C 998.628906 1264.179688 995.46875 1262.390625 994.671875 1259.296875 Z M 994.671875 1259.296875 "/>
<path style=" stroke:none;fill-rule:evenodd;fill:rgb(12.156863%,12.156863%,12.156863%);fill-opacity:1;" d="M 963.109375 1266.578125 C 962.484375 1263.457031 964.488281 1260.488281 967.542969 1259.726562 C 970.605469 1259.019531 973.65625 1260.964844 974.355469 1264.082031 C 975.054688 1267.195312 973.078125 1270.3125 969.945312 1271.042969 C 966.816406 1271.816406 963.738281 1269.71875 963.109375 1266.578125 Z M 963.109375 1266.578125 "/>
<path style=" stroke:none;fill-rule:evenodd;fill:rgb(12.156863%,12.156863%,12.156863%);fill-opacity:1;" d="M 931.179688 1272.03125 C 930.730469 1268.863281 932.898438 1265.996094 936.015625 1265.570312 C 939.109375 1265.015625 942.039062 1267.117188 942.558594 1270.265625 C 943.085938 1273.417969 940.941406 1276.433594 937.773438 1277 C 934.585938 1277.4375 931.628906 1275.183594 931.179688 1272.03125 Z M 931.179688 1272.03125 "/>
<path style=" stroke:none;fill-rule:evenodd;fill:rgb(12.156863%,12.156863%,12.156863%);fill-opacity:1;" d="M 899 1275.703125 C 898.730469 1272.519531 901.046875 1269.746094 904.183594 1269.507812 C 907.328125 1269.328125 910.125 1271.476562 910.472656 1274.671875 C 910.820312 1277.824219 908.519531 1280.832031 905.304688 1281.015625 C 902.09375 1281.261719 899.273438 1278.882812 899 1275.703125 Z M 899 1275.703125 "/>
<path style=" stroke:none;fill-rule:evenodd;fill:rgb(12.156863%,12.156863%,12.156863%);fill-opacity:1;" d="M 866.671875 1277.59375 C 866.578125 1274.402344 869.046875 1271.75 872.191406 1271.667969 C 875.335938 1271.585938 878.019531 1274.121094 878.1875 1277.292969 C 878.359375 1280.496094 875.886719 1283.136719 872.667969 1283.222656 C 869.449219 1283.304688 866.765625 1280.785156 866.671875 1277.59375 Z M 866.671875 1277.59375 "/>
<path style=" stroke:none;fill-rule:evenodd;fill:rgb(12.156863%,12.156863%,12.156863%);fill-opacity:1;" d="M 834.289062 1277.710938 C 834.367188 1274.519531 836.980469 1271.996094 840.125 1272.074219 C 843.273438 1272.15625 845.8125 1274.808594 845.804688 1278.003906 C 845.796875 1281.195312 843.183594 1283.71875 839.96875 1283.640625 C 836.746094 1283.554688 834.203125 1280.902344 834.289062 1277.710938 Z M 834.289062 1277.710938 "/>
<path style=" stroke:none;fill-rule:evenodd;fill:rgb(12.156863%,12.156863%,12.156863%);fill-opacity:1;" d="M 801.945312 1276.054688 C 802.203125 1272.871094 804.957031 1270.488281 808.089844 1270.726562 C 811.226562 1270.96875 813.617188 1273.746094 813.433594 1276.933594 C 813.25 1280.121094 810.5 1282.511719 807.289062 1282.265625 C 804.082031 1282.019531 801.6875 1279.238281 801.945312 1276.054688 Z M 801.945312 1276.054688 "/>
<path style=" stroke:none;fill-rule:evenodd;fill:rgb(12.156863%,12.156863%,12.156863%);fill-opacity:1;" d="M 769.746094 1272.621094 C 770.179688 1269.457031 773.054688 1267.214844 776.175781 1267.613281 C 779.292969 1268.011719 781.53125 1270.910156 781.167969 1274.082031 C 780.808594 1277.253906 777.929688 1279.496094 774.734375 1279.085938 C 771.542969 1278.679688 769.308594 1275.78125 769.746094 1272.621094 Z M 769.746094 1272.621094 "/>
<path style=" stroke:none;fill-rule:evenodd;fill:rgb(12.156863%,12.156863%,12.156863%);fill-opacity:1;" d="M 737.777344 1267.402344 C 738.386719 1264.269531 741.394531 1262.179688 744.488281 1262.738281 C 747.585938 1263.292969 749.65625 1266.292969 749.117188 1269.441406 C 748.582031 1272.589844 745.574219 1274.675781 742.40625 1274.109375 C 739.238281 1273.542969 737.164062 1270.539062 737.777344 1267.402344 Z M 737.777344 1267.402344 "/>
<path style=" stroke:none;fill-rule:evenodd;fill:rgb(12.156863%,12.156863%,12.156863%);fill-opacity:1;" d="M 706.152344 1260.417969 C 706.9375 1257.324219 710.058594 1255.390625 713.125 1256.101562 C 716.1875 1256.8125 718.089844 1259.910156 717.378906 1263.023438 C 716.664062 1266.136719 713.542969 1268.070312 710.40625 1267.34375 C 707.269531 1266.613281 705.363281 1263.515625 706.152344 1260.417969 Z M 706.152344 1260.417969 "/>
<path style=" stroke:none;fill-rule:evenodd;fill:rgb(12.156863%,12.156863%,12.156863%);fill-opacity:1;" d="M 674.964844 1251.667969 C 675.914062 1248.660156 679.152344 1246.863281 682.171875 1247.734375 C 685.199219 1248.597656 686.929688 1251.78125 686.039062 1254.851562 C 685.152344 1257.917969 681.921875 1259.6875 678.828125 1258.800781 C 675.734375 1257.910156 673.996094 1254.75 674.964844 1251.667969 Z M 674.964844 1251.667969 "/>
<path style=" stroke:none;fill-rule:evenodd;fill:rgb(12.156863%,12.156863%,12.156863%);fill-opacity:1;" d="M 644.371094 1241.035156 C 645.511719 1238.019531 648.757812 1236.636719 651.730469 1237.660156 C 654.710938 1238.671875 656.261719 1241.933594 655.203125 1244.945312 C 654.140625 1247.957031 650.8125 1249.5625 647.765625 1248.523438 C 644.726562 1247.472656 643.253906 1243.992188 644.371094 1241.035156 Z M 644.371094 1241.035156 "/>
<path style=" stroke:none;fill-rule:evenodd;fill:rgb(12.156863%,12.156863%,12.156863%);fill-opacity:1;" d="M 614.410156 1228.722656 C 615.707031 1225.804688 619.082031 1224.492188 621.941406 1225.796875 C 624.78125 1227.152344 626.207031 1230.359375 624.964844 1233.34375 C 623.75 1236.257812 620.28125 1237.804688 617.371094 1236.417969 C 614.441406 1235.085938 613.117188 1231.640625 614.410156 1228.722656 Z M 614.410156 1228.722656 "/>
<path style=" stroke:none;fill-rule:evenodd;fill:rgb(12.156863%,12.156863%,12.156863%);fill-opacity:1;" d="M 585.1875 1214.769531 C 586.640625 1211.929688 590.089844 1210.792969 592.886719 1212.234375 C 595.683594 1213.671875 596.820312 1217.171875 595.429688 1220.046875 C 594.039062 1222.917969 590.589844 1224.054688 587.726562 1222.582031 C 584.863281 1221.109375 583.726562 1217.609375 585.1875 1214.769531 Z M 585.1875 1214.769531 "/>
<path style=" stroke:none;fill-rule:evenodd;fill:rgb(12.156863%,12.156863%,12.156863%);fill-opacity:1;" d="M 556.773438 1199.230469 C 558.386719 1196.472656 561.902344 1195.515625 564.621094 1197.089844 C 567.34375 1198.664062 568.292969 1202.203125 566.746094 1204.996094 C 565.191406 1207.789062 561.683594 1208.746094 558.894531 1207.136719 C 556.109375 1205.523438 555.15625 1201.984375 556.773438 1199.230469 Z M 556.773438 1199.230469 "/>
<path style=" stroke:none;fill-rule:evenodd;fill:rgb(12.156863%,12.156863%,12.156863%);fill-opacity:1;" d="M 529.25 1182.152344 C 531.015625 1179.492188 534.589844 1178.714844 537.234375 1180.417969 C 539.878906 1182.125 540.636719 1185.695312 538.933594 1188.394531 C 537.230469 1191.09375 533.65625 1191.871094 530.949219 1190.128906 C 528.246094 1188.382812 527.484375 1184.8125 529.25 1182.152344 Z M 529.25 1182.152344 "/>
<path style=" stroke:none;fill-rule:evenodd;fill:rgb(12.156863%,12.156863%,12.156863%);fill-opacity:1;" d="M 502.703125 1163.59375 C 504.613281 1161.039062 508.238281 1160.445312 510.796875 1162.273438 C 513.355469 1164.105469 513.925781 1167.695312 512.078125 1170.296875 C 510.226562 1172.898438 506.605469 1173.488281 503.980469 1171.617188 C 501.367188 1169.746094 500.792969 1166.152344 502.703125 1163.59375 Z M 502.703125 1163.59375 "/>
<path style=" stroke:none;fill-rule:evenodd;fill:rgb(12.156863%,12.156863%,12.156863%);fill-opacity:1;" d="M 477.257812 1143.554688 C 479.285156 1141.128906 482.886719 1140.796875 485.382812 1142.710938 C 487.851562 1144.660156 488.238281 1148.261719 486.246094 1150.757812 C 484.25 1153.253906 480.585938 1153.65625 478.066406 1151.664062 C 475.511719 1149.699219 475.183594 1146.027344 477.257812 1143.554688 Z M 477.257812 1143.554688 "/>
<path style=" stroke:none;fill-rule:evenodd;fill:rgb(12.156863%,12.156863%,12.156863%);fill-opacity:1;" d="M 453.019531 1122.058594 C 455.203125 1119.730469 458.808594 1119.605469 461.082031 1121.78125 C 463.429688 1123.871094 463.644531 1127.457031 461.511719 1129.84375 C 459.390625 1132.21875 455.683594 1132.453125 453.277344 1130.3125 C 450.953125 1128.085938 450.839844 1124.390625 453.019531 1122.058594 Z M 453.019531 1122.058594 "/>
<path style=" stroke:none;fill-rule:evenodd;fill:rgb(12.156863%,12.156863%,12.156863%);fill-opacity:1;" d="M 429.992188 1099.285156 C 432.296875 1097.078125 435.921875 1097.140625 438.082031 1099.421875 C 440.238281 1101.714844 440.175781 1105.382812 437.945312 1107.613281 C 435.667969 1109.898438 432.03125 1109.855469 429.824219 1107.511719 C 427.605469 1105.175781 427.683594 1101.496094 429.992188 1099.285156 Z M 429.992188 1099.285156 "/>
<path style=" stroke:none;fill-rule:evenodd;fill:rgb(12.156863%,12.156863%,12.156863%);fill-opacity:1;" d="M 408.226562 1075.300781 C 410.652344 1073.222656 414.28125 1073.472656 416.335938 1075.851562 C 418.390625 1078.234375 418.125 1081.898438 415.75 1084.027344 C 413.371094 1086.160156 409.742188 1085.910156 407.636719 1083.472656 C 405.535156 1081.03125 405.800781 1077.375 408.226562 1075.300781 Z M 408.226562 1075.300781 "/>
<path style=" stroke:none;fill-rule:evenodd;fill:rgb(12.156863%,12.156863%,12.156863%);fill-opacity:1;" d="M 387.796875 1050.167969 C 390.335938 1048.226562 393.957031 1048.664062 395.894531 1051.140625 C 397.828125 1053.617188 397.382812 1057.246094 394.894531 1059.242188 C 392.402344 1061.238281 388.773438 1060.804688 386.792969 1058.269531 C 384.8125 1055.730469 385.261719 1052.105469 387.796875 1050.167969 Z M 387.796875 1050.167969 "/>
<path style=" stroke:none;fill-rule:evenodd;fill:rgb(12.156863%,12.156863%,12.156863%);fill-opacity:1;" d="M 368.753906 1023.957031 C 371.398438 1022.164062 375.011719 1022.789062 376.828125 1025.355469 C 378.644531 1027.925781 378.007812 1031.511719 375.410156 1033.367188 C 372.8125 1035.222656 369.199219 1034.597656 367.34375 1031.96875 C 365.480469 1029.34375 366.117188 1025.753906 368.753906 1023.957031 Z M 368.753906 1023.957031 "/>
<path style=" stroke:none;fill-rule:evenodd;fill:rgb(12.156863%,12.156863%,12.156863%);fill-opacity:1;" d="M 351.171875 996.753906 C 353.902344 995.109375 357.492188 995.921875 359.183594 998.574219 C 360.875 1001.226562 360.058594 1004.761719 357.363281 1006.46875 C 354.667969 1008.179688 351.082031 1007.367188 349.351562 1004.652344 C 347.621094 1001.933594 348.433594 998.402344 351.171875 996.753906 Z M 351.171875 996.753906 "/>
<path style=" stroke:none;fill-rule:evenodd;fill:rgb(12.156863%,12.156863%,12.156863%);fill-opacity:1;" d="M 335.269531 968.53125 C 338.121094 967.023438 341.472656 968.136719 343.023438 970.871094 C 344.585938 973.597656 343.59375 977.074219 340.808594 978.632812 C 338.023438 980.191406 334.46875 979.1875 332.867188 976.394531 C 331.277344 973.59375 332.472656 970.007812 335.269531 968.53125 Z M 335.269531 968.53125 "/>
<path style=" stroke:none;fill-rule:evenodd;fill:rgb(12.156863%,12.156863%,12.156863%);fill-opacity:1;" d="M 320.925781 939.484375 C 323.828125 938.152344 327.226562 939.394531 328.515625 942.261719 C 329.75 945.160156 328.6875 948.515625 325.789062 949.929688 C 322.949219 951.316406 319.332031 950.179688 318.066406 947.214844 C 316.742188 944.277344 318.027344 940.820312 320.925781 939.484375 Z M 320.925781 939.484375 "/>
<path style=" stroke:none;fill-rule:evenodd;fill:rgb(12.156863%,12.156863%,12.156863%);fill-opacity:1;" d="M 308.199219 909.703125 C 311.167969 908.53125 314.507812 909.957031 315.65625 912.886719 C 316.800781 915.8125 315.347656 919.191406 312.40625 920.429688 C 309.464844 921.667969 306.125 920.246094 304.949219 917.246094 C 303.773438 914.25 305.230469 910.871094 308.199219 909.703125 Z M 308.199219 909.703125 "/>
<path style=" stroke:none;fill-rule:evenodd;fill:rgb(12.156863%,12.156863%,12.156863%);fill-opacity:1;" d="M 297.121094 879.261719 C 300.15625 878.261719 303.425781 879.863281 304.429688 882.84375 C 305.429688 885.824219 303.804688 889.113281 300.800781 890.183594 C 297.789062 891.261719 294.523438 889.65625 293.492188 886.605469 C 292.46875 883.550781 294.089844 880.265625 297.121094 879.261719 Z M 297.121094 879.261719 "/>
<path style=" stroke:none;fill-rule:evenodd;fill:rgb(12.156863%,12.156863%,12.156863%);fill-opacity:1;" d="M 287.734375 848.261719 C 290.816406 847.429688 294.007812 849.207031 294.867188 852.234375 C 295.71875 855.261719 293.929688 858.449219 290.867188 859.355469 C 287.804688 860.257812 284.613281 858.480469 283.738281 855.382812 C 282.863281 852.28125 284.652344 849.09375 287.734375 848.261719 Z M 287.734375 848.261719 "/>
<path style=" stroke:none;fill-rule:evenodd;fill:rgb(12.156863%,12.156863%,12.156863%);fill-opacity:1;" d="M 280.066406 816.792969 C 283.191406 816.132812 286.292969 818.082031 286.996094 821.148438 C 287.699219 824.214844 285.75 827.289062 282.644531 828.023438 C 279.535156 828.753906 276.429688 826.808594 275.710938 823.667969 C 274.992188 820.53125 276.941406 817.449219 280.066406 816.792969 Z M 280.066406 816.792969 "/>
<path style=" stroke:none;fill-rule:evenodd;fill:rgb(12.156863%,12.156863%,12.156863%);fill-opacity:1;" d="M 274.136719 784.941406 C 277.292969 784.457031 280.300781 786.574219 280.847656 789.671875 C 281.398438 792.765625 279.296875 795.730469 276.152344 796.289062 C 273.007812 796.847656 270.003906 794.734375 269.441406 791.5625 C 268.882812 788.394531 270.980469 785.429688 274.136719 784.941406 Z M 274.136719 784.941406 "/>
<path style=" stroke:none;fill-rule:evenodd;fill:rgb(12.156863%,12.156863%,12.156863%);fill-opacity:1;" d="M 270.007812 752.8125 C 273.140625 752.503906 276.039062 754.78125 276.4375 757.902344 C 276.832031 761.023438 274.582031 763.863281 271.414062 764.246094 C 268.25 764.632812 265.351562 762.355469 264.945312 759.160156 C 264.539062 755.96875 266.792969 753.128906 270.007812 752.8125 Z M 270.007812 752.8125 "/>
<path style=" stroke:none;fill-rule:evenodd;fill:rgb(12.156863%,12.156863%,12.156863%);fill-opacity:1;" d="M 312.40625 467.296875 C 315.347656 468.535156 316.800781 471.914062 315.652344 474.84375 C 314.503906 477.773438 311.167969 479.195312 308.199219 478.027344 C 305.230469 476.855469 303.773438 473.480469 304.949219 470.480469 C 306.125 467.484375 309.464844 466.058594 312.40625 467.296875 Z M 312.40625 467.296875 "/>
<path style=" stroke:none;fill-rule:evenodd;fill:rgb(12.156863%,12.156863%,12.156863%);fill-opacity:1;" d="M 325.789062 437.796875 C 328.6875 439.210938 329.75 442.566406 328.515625 445.460938 C 327.226562 448.332031 323.828125 449.574219 320.925781 448.238281 C 318.027344 446.90625 316.742188 443.449219 318.066406 440.511719 C 319.332031 437.550781 322.949219 436.410156 325.789062 437.796875 Z M 325.789062 437.796875 "/>
<path style=" stroke:none;fill-rule:evenodd;fill:rgb(12.156863%,12.156863%,12.156863%);fill-opacity:1;" d="M 340.808594 409.09375 C 343.59375 410.652344 344.589844 414.125 343.027344 416.859375 C 341.472656 419.59375 338.117188 420.703125 335.269531 419.195312 C 332.472656 417.714844 331.277344 414.132812 332.871094 411.335938 C 334.464844 408.539062 338.019531 407.535156 340.808594 409.09375 Z M 340.808594 409.09375 "/>
<path style=" stroke:none;fill-rule:evenodd;fill:rgb(12.156863%,12.156863%,12.156863%);fill-opacity:1;" d="M 357.363281 381.257812 C 360.058594 382.964844 360.875 386.5 359.183594 389.152344 C 357.492188 391.804688 353.898438 392.617188 351.171875 390.972656 C 348.433594 389.324219 347.621094 385.789062 349.351562 383.074219 C 351.082031 380.359375 354.667969 379.546875 357.363281 381.257812 Z M 357.363281 381.257812 "/>
<path style=" stroke:none;fill-rule:evenodd;fill:rgb(12.156863%,12.156863%,12.156863%);fill-opacity:1;" d="M 375.410156 354.359375 C 378.007812 356.21875 378.644531 359.804688 376.828125 362.371094 C 375.011719 364.9375 371.398438 365.5625 368.753906 363.765625 C 366.117188 361.972656 365.480469 358.386719 367.34375 355.757812 C 369.199219 353.128906 372.8125 352.503906 375.410156 354.359375 Z M 375.410156 354.359375 "/>
<path style=" stroke:none;fill-rule:evenodd;fill:rgb(12.156863%,12.156863%,12.156863%);fill-opacity:1;" d="M 394.894531 328.484375 C 397.382812 330.480469 397.832031 334.109375 395.894531 336.585938 C 393.960938 339.0625 390.332031 339.5 387.796875 337.5625 C 385.261719 335.625 384.8125 331.996094 386.792969 329.460938 C 388.777344 326.921875 392.402344 326.484375 394.894531 328.484375 Z M 394.894531 328.484375 "/>
<path style=" stroke:none;fill-rule:evenodd;fill:rgb(12.156863%,12.156863%,12.156863%);fill-opacity:1;" d="M 415.75 303.699219 C 418.125 305.832031 418.390625 309.492188 416.335938 311.875 C 414.28125 314.257812 410.652344 314.503906 408.226562 312.429688 C 405.800781 310.355469 405.539062 306.691406 407.636719 304.253906 C 409.742188 301.816406 413.371094 301.566406 415.75 303.699219 Z M 415.75 303.699219 "/>
<path style=" stroke:none;fill-rule:evenodd;fill:rgb(12.156863%,12.156863%,12.156863%);fill-opacity:1;" d="M 437.949219 280.109375 C 440.179688 282.34375 440.238281 286.015625 438.082031 288.304688 C 435.921875 290.585938 432.296875 290.648438 429.992188 288.441406 C 427.683594 286.234375 427.605469 282.550781 429.824219 280.214844 C 432.03125 277.871094 435.671875 277.828125 437.949219 280.109375 Z M 437.949219 280.109375 "/>
<path style=" stroke:none;fill-rule:evenodd;fill:rgb(12.156863%,12.156863%,12.156863%);fill-opacity:1;" d="M 461.515625 257.882812 C 463.644531 260.269531 463.433594 263.855469 461.082031 265.945312 C 458.8125 268.121094 455.203125 267.996094 453.019531 265.664062 C 450.839844 263.335938 450.949219 259.640625 453.277344 257.414062 C 455.683594 255.273438 459.390625 255.507812 461.515625 257.882812 Z M 461.515625 257.882812 "/>
<path style=" stroke:none;fill-rule:evenodd;fill:rgb(12.156863%,12.156863%,12.156863%);fill-opacity:1;" d="M 486.242188 236.96875 C 488.234375 239.464844 487.847656 243.066406 485.382812 245.015625 C 482.886719 246.929688 479.28125 246.597656 477.253906 244.175781 C 475.1875 241.699219 475.511719 238.027344 478.066406 236.066406 C 480.589844 234.066406 484.25 234.476562 486.242188 236.96875 Z M 486.242188 236.96875 "/>
<path style=" stroke:none;fill-rule:evenodd;fill:rgb(12.156863%,12.156863%,12.156863%);fill-opacity:1;" d="M 512.078125 217.433594 C 513.929688 220.03125 513.355469 223.625 510.796875 225.453125 C 508.238281 227.28125 504.613281 226.691406 502.703125 224.132812 C 500.792969 221.574219 501.363281 217.980469 503.980469 216.109375 C 506.601562 214.238281 510.226562 214.832031 512.078125 217.433594 Z M 512.078125 217.433594 "/>
<path style=" stroke:none;fill-rule:evenodd;fill:rgb(12.156863%,12.156863%,12.156863%);fill-opacity:1;" d="M 538.933594 199.332031 C 540.636719 202.035156 539.878906 205.605469 537.234375 207.308594 C 534.589844 209.007812 531.015625 208.234375 529.25 205.574219 C 527.484375 202.914062 528.246094 199.34375 530.949219 197.601562 C 533.660156 195.855469 537.230469 196.628906 538.933594 199.332031 Z M 538.933594 199.332031 "/>
<path style=" stroke:none;fill-rule:evenodd;fill:rgb(12.156863%,12.156863%,12.156863%);fill-opacity:1;" d="M 566.742188 182.730469 C 568.292969 185.523438 567.34375 189.0625 564.621094 190.636719 C 561.902344 192.210938 558.386719 191.253906 556.769531 188.5 C 555.15625 185.742188 556.105469 182.203125 558.894531 180.59375 C 561.683594 178.980469 565.195312 179.941406 566.742188 182.730469 Z M 566.742188 182.730469 "/>
<path style=" stroke:none;fill-rule:evenodd;fill:rgb(12.156863%,12.156863%,12.156863%);fill-opacity:1;" d="M 595.429688 167.683594 C 596.820312 170.558594 595.683594 174.054688 592.886719 175.492188 C 590.089844 176.933594 586.644531 175.796875 585.183594 172.957031 C 583.730469 170.117188 584.863281 166.621094 587.726562 165.144531 C 590.589844 163.671875 594.039062 164.808594 595.429688 167.683594 Z M 595.429688 167.683594 "/>
<path style=" stroke:none;fill-rule:evenodd;fill:rgb(12.156863%,12.156863%,12.156863%);fill-opacity:1;" d="M 1096.621094 165.707031 C 1095.242188 168.585938 1091.804688 169.871094 1088.941406 168.570312 C 1086.078125 167.269531 1084.820312 163.851562 1086.128906 160.9375 C 1087.441406 158.03125 1090.875 156.746094 1093.808594 158.078125 C 1096.738281 159.414062 1097.996094 162.828125 1096.621094 165.707031 Z M 1096.621094 165.707031 "/>
<path style=" stroke:none;fill-rule:evenodd;fill:rgb(12.156863%,12.156863%,12.156863%);fill-opacity:1;" d="M 1125.492188 180.390625 C 1123.972656 183.152344 1120.445312 184.28125 1117.65625 182.835938 C 1114.855469 181.398438 1113.785156 177.933594 1115.253906 175.097656 C 1116.726562 172.261719 1120.242188 171.160156 1123.105469 172.632812 C 1125.957031 174.117188 1127.046875 177.554688 1125.492188 180.390625 Z M 1125.492188 180.390625 "/>
<path style=" stroke:none;fill-rule:evenodd;fill:rgb(12.156863%,12.156863%,12.156863%);fill-opacity:1;" d="M 1153.417969 196.796875 C 1151.714844 199.527344 1148.242188 200.277344 1145.546875 198.660156 C 1142.824219 197.085938 1141.9375 193.585938 1143.566406 190.839844 C 1145.191406 188.089844 1148.769531 187.167969 1151.554688 188.78125 C 1154.3125 190.4375 1155.097656 194.109375 1153.417969 196.800781 Z M 1153.417969 196.796875 "/>
<path style=" stroke:none;fill-rule:evenodd;fill:rgb(12.156863%,12.156863%,12.156863%);fill-opacity:1;" d="M 1180.40625 214.710938 C 1178.566406 217.320312 1175 217.957031 1172.445312 216.125 C 1169.914062 214.253906 1169.1875 210.761719 1170.964844 208.105469 C 1172.742188 205.457031 1176.402344 204.679688 1178.992188 206.597656 C 1181.613281 208.46875 1182.246094 212.101562 1180.40625 214.710938 Z M 1180.40625 214.710938 "/>
<path style=" stroke:none;fill-rule:evenodd;fill:rgb(12.156863%,12.156863%,12.156863%);fill-opacity:1;" d="M 1206.371094 234.070312 C 1204.386719 236.570312 1200.78125 237.023438 1198.316406 235.070312 C 1195.847656 233.125 1195.40625 229.476562 1197.328125 226.925781 C 1199.253906 224.378906 1202.855469 223.925781 1205.382812 225.921875 C 1207.910156 227.917969 1208.351562 231.566406 1206.371094 234.070312 Z M 1206.371094 234.070312 "/>
<path style=" stroke:none;fill-rule:evenodd;fill:rgb(12.156863%,12.156863%,12.156863%);fill-opacity:1;" d="M 1231.246094 254.8125 C 1229.132812 257.199219 1225.492188 257.464844 1223.121094 255.402344 C 1220.75 253.335938 1220.496094 249.683594 1222.554688 247.246094 C 1224.617188 244.804688 1228.257812 244.542969 1230.683594 246.65625 C 1233.113281 248.769531 1233.359375 252.421875 1231.246094 254.8125 Z M 1231.246094 254.8125 "/>
<path style=" stroke:none;fill-rule:evenodd;fill:rgb(12.156863%,12.156863%,12.156863%);fill-opacity:1;" d="M 1254.960938 276.875 C 1252.714844 279.148438 1249.050781 279.222656 1246.78125 277.042969 C 1244.511719 274.867188 1244.445312 271.222656 1246.640625 268.902344 C 1248.832031 266.582031 1252.496094 266.503906 1254.816406 268.734375 C 1257.144531 270.960938 1257.203125 274.605469 1254.960938 276.875 Z M 1254.960938 276.875 "/>
<path style=" stroke:none;fill-rule:evenodd;fill:rgb(12.156863%,12.156863%,12.156863%);fill-opacity:1;" d="M 1277.441406 300.195312 C 1275.078125 302.335938 1271.402344 302.226562 1269.238281 299.945312 C 1267.074219 297.660156 1267.199219 294.03125 1269.515625 291.835938 C 1271.832031 289.636719 1275.503906 289.75 1277.71875 292.085938 C 1279.933594 294.421875 1279.808594 298.050781 1277.441406 300.195312 Z M 1277.441406 300.195312 "/>
<path style=" stroke:none;fill-rule:evenodd;fill:rgb(12.156863%,12.156863%,12.156863%);fill-opacity:1;" d="M 1298.511719 324.796875 C 1296.003906 326.828125 1292.515625 326.371094 1290.417969 324.023438 C 1288.367188 321.640625 1288.675781 318.035156 1291.109375 315.96875 C 1293.546875 313.90625 1297.222656 314.210938 1299.324219 316.648438 C 1301.46875 319.050781 1300.96875 322.8125 1298.511719 324.796875 Z M 1298.511719 324.796875 "/>
<path style=" stroke:none;fill-rule:evenodd;fill:rgb(12.156863%,12.156863%,12.156863%);fill-opacity:1;" d="M 1318.171875 350.542969 C 1315.585938 352.410156 1312.015625 351.84375 1310.199219 349.277344 C 1308.40625 346.691406 1308.792969 343.199219 1311.371094 341.246094 C 1313.886719 339.34375 1317.652344 339.757812 1319.492188 342.402344 C 1321.355469 345.03125 1320.761719 348.675781 1318.171875 350.542969 Z M 1318.171875 350.542969 "/>
<path style=" stroke:none;fill-rule:evenodd;fill:rgb(12.156863%,12.156863%,12.156863%);fill-opacity:1;" d="M 1336.40625 377.3125 C 1333.714844 379.035156 1330.164062 378.28125 1328.476562 375.628906 C 1326.789062 372.976562 1327.5625 369.378906 1330.210938 367.597656 C 1332.855469 365.8125 1336.410156 366.566406 1338.140625 369.28125 C 1339.875 371.996094 1339.09375 375.589844 1336.40625 377.3125 Z M 1336.40625 377.3125 "/>
<path style=" stroke:none;fill-rule:evenodd;fill:rgb(12.156863%,12.156863%,12.156863%);fill-opacity:1;" d="M 1353.15625 405.035156 C 1350.378906 406.605469 1346.859375 405.667969 1345.296875 402.9375 C 1343.734375 400.203125 1344.695312 396.667969 1347.433594 395.03125 C 1350.179688 393.398438 1353.703125 394.335938 1355.296875 397.132812 C 1356.898438 399.925781 1355.9375 403.464844 1353.15625 405.035156 Z M 1353.15625 405.035156 "/>
<path style=" stroke:none;fill-rule:evenodd;fill:rgb(12.156863%,12.156863%,12.156863%);fill-opacity:1;" d="M 1368.371094 433.628906 C 1365.507812 435.042969 1362.027344 433.917969 1360.601562 431.113281 C 1359.171875 428.3125 1360.308594 424.84375 1363.140625 423.363281 C 1365.96875 421.882812 1369.445312 423.007812 1370.910156 425.875 C 1372.371094 428.746094 1371.234375 432.214844 1368.371094 433.628906 Z M 1368.371094 433.628906 "/>
<path style=" stroke:none;fill-rule:evenodd;fill:rgb(12.156863%,12.156863%,12.156863%);fill-opacity:1;" d="M 1382 463.015625 C 1379.0625 464.269531 1375.636719 462.960938 1374.34375 460.089844 C 1373.058594 457.222656 1374.367188 453.828125 1377.273438 452.507812 C 1380.183594 451.183594 1383.609375 452.496094 1384.929688 455.429688 C 1386.25 458.367188 1384.941406 461.761719 1382 463.015625 Z M 1382 463.015625 "/>
<path style=" stroke:none;fill-rule:evenodd;fill:rgb(12.156863%,12.156863%,12.156863%);fill-opacity:1;" d="M 1393.996094 493.109375 C 1391.003906 494.191406 1387.632812 492.707031 1386.484375 489.777344 C 1385.335938 486.847656 1386.820312 483.535156 1389.792969 482.378906 C 1392.769531 481.222656 1396.136719 482.714844 1397.308594 485.710938 C 1398.484375 488.710938 1397.007812 492.019531 1393.996094 493.109375 Z M 1393.996094 493.109375 "/>
<path style=" stroke:none;fill-rule:nonzero;fill:rgb(12.156863%,12.156863%,12.156863%);fill-opacity:1;" d="M 1136.390625 810.75 C 1136.953125 810.886719 1137.519531 810.988281 1138.078125 811.164062 C 1137.832031 811.191406 1137.566406 811.230469 1137.3125 811.230469 C 1136.902344 811.230469 1136.535156 811.132812 1136.390625 810.75 Z M 1136.390625 810.75 "/>
<path style=" stroke:none;fill-rule:nonzero;fill:rgb(12.156863%,12.156863%,12.156863%);fill-opacity:1;" d="M 640.628906 530.304688 C 640.65625 530.304688 640.683594 530.304688 640.71875 530.308594 C 640.730469 530.410156 640.738281 530.511719 640.746094 530.613281 C 640.480469 530.421875 640.417969 530.304688 640.628906 530.304688 Z M 640.628906 530.304688 "/>
<path style=" stroke:none;fill-rule:nonzero;fill:rgb(12.156863%,12.156863%,12.156863%);fill-opacity:1;" d="M 941.4375 812.097656 C 941.363281 812.417969 941.226562 812.742188 941.023438 813.070312 C 941.160156 812.75 941.296875 812.421875 941.4375 812.097656 Z M 941.4375 812.097656 "/>
<path style=" stroke:none;fill-rule:nonzero;fill:rgb(12.156863%,12.156863%,12.156863%);fill-opacity:1;" d="M 455.613281 438.277344 L 461.078125 438.277344 L 461.078125 393.664062 L 455.613281 393.664062 L 455.613281 378.753906 L 522.203125 378.753906 L 522.203125 401.917969 L 505.046875 401.917969 L 505.046875 393.664062 L 489.386719 393.664062 L 489.386719 408.796875 L 502.789062 408.796875 L 502.789062 423.375 L 489.386719 423.375 L 489.386719 438.277344 L 505.046875 438.277344 L 505.046875 428.84375 L 522.203125 428.84375 L 522.203125 453.191406 L 455.613281 453.191406 Z M 455.613281 438.277344 "/>
<path style=" stroke:none;fill-rule:nonzero;fill:rgb(12.156863%,12.156863%,12.156863%);fill-opacity:1;" d="M 528.53125 427.878906 L 545.804688 427.878906 C 546.332031 437.3125 550.957031 440.441406 556.53125 440.441406 C 561.890625 440.441406 564.679688 437.097656 564.679688 434.105469 C 564.679688 429.386719 558.78125 427.023438 553.53125 424.664062 L 541.730469 419.308594 C 532.9375 415.339844 527.992188 408.464844 527.992188 399.566406 C 527.992188 386.808594 537.65625 377.367188 553.199219 377.367188 C 564.457031 377.367188 570.578125 381.765625 572.929688 383.699219 L 572.929688 378.753906 L 589.238281 378.753906 L 589.238281 400.535156 L 572.929688 400.535156 C 571.960938 394.941406 567.78125 391.527344 562.851562 391.527344 C 558.996094 391.527344 556.097656 393.5625 556.097656 396.996094 C 556.097656 400.207031 558.890625 401.917969 564.992188 404.710938 L 577.332031 410.394531 C 585.8125 414.265625 593.746094 419.503906 593.746094 431.425781 C 593.746094 443.109375 586.453125 454.703125 566.179688 454.703125 C 558.570312 454.703125 552.027344 452.976562 545.910156 449.121094 L 545.910156 453.191406 L 528.53125 453.191406 Z M 528.53125 427.878906 "/>
<path style=" stroke:none;fill-rule:nonzero;fill:rgb(12.156863%,12.156863%,12.156863%);fill-opacity:1;" d="M 654.863281 453.191406 L 614.753906 453.191406 L 614.753906 438.277344 L 620.65625 438.277344 L 620.65625 393.664062 L 614.328125 393.664062 L 614.328125 411.464844 L 599.3125 411.464844 L 599.3125 378.753906 L 670.425781 378.753906 L 670.425781 411.464844 L 655.515625 411.464844 L 655.515625 393.664062 L 648.972656 393.664062 L 648.972656 438.277344 L 654.863281 438.277344 Z M 654.863281 453.191406 "/>
<path style=" stroke:none;fill-rule:nonzero;fill:rgb(12.156863%,12.156863%,12.156863%);fill-opacity:1;" d="M 665.605469 433.355469 L 690.375 433.355469 L 690.375 453.191406 L 665.605469 453.191406 Z M 665.605469 433.355469 "/>
<path style=" stroke:none;fill-rule:nonzero;fill:rgb(12.156863%,12.156863%,12.156863%);fill-opacity:1;" d="M 1002.953125 435.660156 C 1005.097656 429.542969 1008.632812 424.925781 1012.5 420.75 C 1017.105469 415.8125 1019.796875 413.996094 1023.972656 411.09375 C 1029.871094 407.113281 1032.554688 405.191406 1034.378906 403.359375 C 1036.523438 401.214844 1038.023438 398.753906 1038.023438 395.972656 C 1038.023438 391.570312 1034.796875 388.238281 1029.972656 388.238281 C 1024.1875 388.238281 1021.183594 393.066406 1021.503906 398.117188 L 1002.410156 398.117188 C 1002.304688 392.007812 1004.03125 384.171875 1012.707031 379.125 C 1014.960938 377.84375 1020.539062 375.050781 1031.375 375.050781 C 1052.824219 375.050781 1061.613281 386.324219 1061.613281 397.464844 C 1061.613281 402.933594 1059.679688 407.019531 1057.863281 409.582031 C 1054.421875 414.421875 1049.707031 416.78125 1041.449219 420.851562 C 1033.089844 424.925781 1026.660156 427.605469 1022.695312 435.882812 L 1047.453125 435.882812 L 1047.453125 426.648438 L 1062.804688 426.648438 L 1062.804688 450.792969 L 1001.03125 450.792969 C 1000.589844 445.746094 1001.238281 440.484375 1002.953125 435.660156 Z M 1002.953125 435.660156 "/>
<path style=" stroke:none;fill-rule:nonzero;fill:rgb(12.156863%,12.156863%,12.156863%);fill-opacity:1;" d="M 1107.425781 413.664062 C 1107.425781 404.347656 1107.3125 390.058594 1100.121094 390.058594 C 1092.5 390.058594 1092.933594 405.941406 1092.933594 413.664062 C 1092.933594 421.382812 1092.617188 437.253906 1100.121094 437.253906 C 1107.839844 437.253906 1107.425781 420.851562 1107.425781 413.664062 Z M 1069.125 413.664062 C 1069.125 385.34375 1084.464844 375.050781 1100.121094 375.050781 C 1115.886719 375.050781 1131.214844 385.242188 1131.214844 413.664062 C 1131.214844 442.078125 1115.886719 452.289062 1100.121094 452.289062 C 1084.464844 452.289062 1069.125 441.988281 1069.125 413.664062 Z M 1069.125 413.664062 "/>
<path style=" stroke:none;fill-rule:nonzero;fill:rgb(12.156863%,12.156863%,12.156863%);fill-opacity:1;" d="M 1174.445312 413.664062 C 1174.445312 404.347656 1174.335938 390.058594 1167.152344 390.058594 C 1159.535156 390.058594 1159.96875 405.941406 1159.96875 413.664062 C 1159.96875 421.382812 1159.636719 437.253906 1167.152344 437.253906 C 1174.867188 437.253906 1174.445312 420.851562 1174.445312 413.664062 Z M 1136.160156 413.664062 C 1136.160156 385.34375 1151.488281 375.050781 1167.152344 375.050781 C 1182.917969 375.050781 1198.261719 385.242188 1198.261719 413.664062 C 1198.261719 442.078125 1182.917969 452.289062 1167.152344 452.289062 C 1151.488281 452.289062 1136.160156 441.988281 1136.160156 413.664062 Z M 1136.160156 413.664062 "/>
<path style=" stroke:none;fill-rule:nonzero;fill:rgb(12.156863%,12.156863%,12.156863%);fill-opacity:1;" d="M 1234.175781 406.265625 C 1238.78125 406.265625 1242.875 402.40625 1242.875 397.261719 C 1242.875 392.324219 1239.003906 388.238281 1234.175781 388.238281 C 1229.355469 388.238281 1225.492188 392.324219 1225.492188 397.261719 C 1225.492188 402.183594 1229.355469 406.265625 1234.175781 406.265625 Z M 1234.175781 439.09375 C 1239.222656 439.09375 1243.503906 434.679688 1243.503906 429.011719 C 1243.503906 423.539062 1239.644531 419.035156 1234.175781 419.035156 C 1229.035156 419.035156 1224.847656 423.425781 1224.847656 429.011719 C 1224.847656 434.582031 1229.148438 439.09375 1234.175781 439.09375 Z M 1204.796875 395.753906 C 1204.796875 385.675781 1213.910156 375.050781 1234.175781 375.050781 C 1254.339844 375.050781 1263.570312 385.675781 1263.570312 396.296875 C 1263.570312 402.835938 1259.914062 408.957031 1252.953125 412.171875 C 1261.316406 414.957031 1265.8125 421.933594 1265.8125 430.175781 C 1265.8125 442.511719 1256.488281 452.289062 1234.175781 452.289062 C 1211.871094 452.289062 1202.546875 442.511719 1202.546875 430.175781 C 1202.546875 421.933594 1207.042969 414.957031 1215.410156 412.171875 C 1208.558594 408.957031 1204.796875 402.726562 1204.796875 395.753906 Z M 1204.796875 395.753906 "/>
<path style=" stroke:none;fill-rule:nonzero;fill:rgb(12.156863%,12.156863%,12.156863%);fill-opacity:1;" d="M 532.148438 904.859375 L 539.78125 904.859375 L 539.78125 933.070312 L 509.808594 933.070312 L 509.808594 904.859375 L 518.996094 904.859375 L 518.996094 874.402344 L 440.8125 874.402344 L 440.8125 904.859375 L 451.984375 904.859375 L 451.984375 995.96875 L 440.8125 995.96875 L 440.8125 1026.410156 L 518.996094 1026.410156 L 518.996094 995.96875 L 509.808594 995.96875 L 509.808594 963.121094 L 539.78125 963.121094 L 539.78125 995.96875 L 532.148438 995.96875 L 532.148438 1026.410156 L 610.324219 1026.410156 L 610.324219 995.96875 L 600.707031 995.96875 L 600.707031 904.859375 L 610.324219 904.859375 L 610.324219 874.402344 L 532.148438 874.402344 Z M 532.148438 904.859375 "/>
<path style=" stroke:none;fill-rule:nonzero;fill:rgb(12.156863%,12.156863%,12.156863%);fill-opacity:1;" d="M 893.003906 904.640625 L 904.167969 904.640625 L 904.167969 967.492188 C 904.167969 974.074219 904.390625 994.445312 883.808594 994.445312 C 865.851562 994.445312 863.890625 978.667969 863.890625 967.492188 L 863.890625 904.859375 L 875.042969 904.859375 L 875.042969 874.398438 L 794.144531 874.398438 L 794.144531 904.539062 L 805.941406 904.539062 C 805.84375 904.640625 806.074219 963.558594 806.074219 963.558594 C 806.074219 980.089844 807.984375 1003.097656 825.28125 1016.777344 C 826.023438 1016.796875 824.761719 1017.160156 827 1018.035156 C 827.753906 1018.574219 828.480469 1019.128906 829.285156 1019.632812 C 843.289062 1028.398438 863.4375 1029.480469 875.269531 1029.480469 C 911.183594 1029.480469 927.613281 1016.996094 935.058594 1005.398438 C 943.160156 992.90625 943.375 975.167969 943.375 963.558594 L 943.375 904.640625 L 954.542969 904.640625 L 954.542969 874.398438 L 893.003906 874.398438 Z M 893.003906 904.640625 "/>
<path style=" stroke:none;fill-rule:nonzero;fill:rgb(12.156863%,12.156863%,12.156863%);fill-opacity:1;" d="M 1049.644531 905.328125 C 1049.617188 905.261719 1049.570312 905.203125 1049.53125 905.15625 C 1049.226562 904.734375 1048.96875 904.652344 1048.71875 904.652344 C 1049.023438 904.875 1049.355469 905.082031 1049.644531 905.328125 Z M 1049.644531 905.328125 "/>
<path style=" stroke:none;fill-rule:nonzero;fill:rgb(12.156863%,12.156863%,12.156863%);fill-opacity:1;" d="M 1095.847656 968.859375 C 1096.085938 969.160156 1096.167969 969.496094 1096.121094 969.816406 C 1096.003906 969.457031 1095.878906 969.117188 1095.765625 968.765625 C 1095.789062 968.792969 1095.824219 968.832031 1095.847656 968.859375 Z M 1095.4375 966.765625 C 1092.292969 959.183594 1087.535156 952.519531 1080.570312 947.433594 C 1074.921875 943.308594 1068.652344 940.253906 1062.332031 937.324219 C 1055.570312 934.191406 1048.796875 931.0625 1042.023438 927.960938 C 1035.628906 925.035156 1024.804688 922.15625 1022.988281 914.175781 C 1020.003906 901.09375 1036.558594 899.949219 1045.175781 901.574219 C 1052.523438 902.960938 1055.371094 907.917969 1056.449219 912.183594 L 1056.449219 918.886719 L 1090.113281 918.886719 L 1090.304688 894.277344 C 1090.253906 894.359375 1090.304688 874.402344 1090.304688 874.402344 L 1090.113281 874.402344 L 1090.113281 873.632812 L 1056.449219 873.632812 L 1056.449219 883.984375 C 1056.390625 883.964844 1056.335938 883.9375 1056.277344 883.914062 C 1051.652344 880.242188 1041.535156 873.480469 1024.117188 871.914062 C 1024.050781 871.894531 1023.972656 871.867188 1023.945312 871.90625 C 1021.65625 871.703125 1019.285156 871.554688 1016.734375 871.554688 C 984.960938 871.554688 965.261719 890.835938 965.261719 916.902344 C 965.261719 935.089844 975.339844 949.101562 993.292969 957.203125 L 1017.378906 968.148438 C 1028.105469 972.96875 1040.15625 977.808594 1040.15625 987.433594 C 1040.15625 993.566406 1034.457031 1000.359375 1023.519531 1000.359375 C 1012.132812 1000.359375 1002.703125 994.011719 1001.605469 974.730469 L 966.347656 974.730469 L 966.347656 1026.410156 L 1001.824219 1026.410156 L 1001.824219 1018.101562 C 1014.300781 1025.976562 1027.664062 1029.480469 1043.214844 1029.480469 C 1057.558594 1029.480469 1072.515625 1026.667969 1083.925781 1017.472656 C 1095.589844 1008.074219 1102.042969 993.480469 1098.992188 978.574219 C 1098.148438 974.46875 1096.984375 970.507812 1095.4375 966.765625 Z M 1095.4375 966.765625 "/>
<path style=" stroke:none;fill-rule:nonzero;fill:rgb(12.156863%,12.156863%,12.156863%);fill-opacity:1;" d="M 1245.332031 921.722656 L 1245.332031 874.402344 L 1108.375 874.402344 L 1108.375 904.539062 L 1119.277344 904.539062 L 1119.277344 995.96875 L 1109.332031 995.96875 L 1109.332031 1026.410156 L 1245.332031 1026.410156 L 1245.332031 976.699219 L 1210.28125 976.699219 L 1210.28125 995.96875 L 1178.332031 995.96875 L 1178.332031 965.535156 L 1205.683594 965.535156 L 1205.683594 935.734375 L 1178.332031 935.734375 L 1178.332031 904.859375 L 1210.28125 904.859375 L 1210.28125 921.722656 Z M 1245.332031 921.722656 "/>
<path style=" stroke:none;fill-rule:nonzero;fill:rgb(12.156863%,12.156863%,12.156863%);fill-opacity:1;" d="M 702.722656 997.945312 C 682.988281 997.945312 683.347656 966.699219 683.363281 953.503906 C 683.382812 941.121094 683.144531 926.570312 688.441406 914.996094 C 691.296875 908.761719 695.753906 904.640625 702.722656 904.640625 C 720.234375 904.640625 722 930.476562 722 951.300781 C 722 972.320312 720.234375 997.945312 702.722656 997.945312 Z M 758.335938 890.476562 C 757.628906 889.921875 756.925781 889.363281 756.1875 888.820312 C 754.527344 887.5625 752.796875 886.328125 750.941406 885.234375 C 750.011719 884.644531 749.042969 884.074219 748.089844 883.484375 C 747.464844 883.128906 746.871094 882.726562 746.226562 882.386719 C 739.707031 878.722656 732.921875 876.339844 726.261719 874.773438 C 724.890625 874.40625 723.535156 874.023438 722.085938 873.863281 C 721.074219 873.671875 720.070312 873.53125 719.054688 873.257812 C 718.253906 873.117188 717.457031 873.011719 716.6875 873.015625 C 715.300781 872.839844 713.9375 872.71875 712.582031 872.605469 C 712.714844 872.535156 712.851562 872.421875 712.980469 872.359375 C 709.539062 872.003906 705.992188 871.777344 702.28125 871.777344 C 682.785156 871.777344 660.898438 877.039062 643.371094 893.691406 C 621.570312 914.402344 613.363281 947.933594 624.042969 976 C 628.363281 987.359375 634.359375 998.804688 643.148438 1007.363281 C 660.679688 1024.4375 683.238281 1029.476562 702.28125 1029.476562 C 730.09375 1029.476562 750.460938 1018.75 762.515625 1007.148438 C 778.214844 992.023438 787.402344 970.3125 787.671875 948.539062 C 787.957031 925.464844 776.351562 904.582031 758.339844 890.476562 Z M 758.335938 890.476562 "/>
<path style=" stroke:none;fill-rule:evenodd;fill:rgb(12.156863%,12.156863%,12.156863%);fill-opacity:1;" d="M 561 60.046875 L 846.324219 613.210938 L 1132.417969 63.878906 C 1132.417969 63.878906 985.949219 -1.375 840.042969 0.453125 C 701.871094 2.183594 561 60.046875 561 60.046875 Z M 561 60.046875 "/>
<path style=" stroke:none;fill-rule:nonzero;fill:rgb(97.647059%,84.313725%,13.72549%);fill-opacity:1;" d="M 607.207031 69.769531 C 618.804688 65.453125 630.472656 61.242188 642.125 57.226562 C 731.351562 26.457031 830.363281 19.039062 923.859375 29.527344 C 957.765625 33.332031 991.546875 40.234375 1024.089844 50.535156 C 1039.394531 55.375 1054.789062 60.226562 1069.605469 66.613281 C 1073.152344 68.140625 1086.597656 73.222656 1084.417969 77.542969 C 1080.152344 85.980469 1076.066406 94.523438 1071.878906 103.027344 C 1067.53125 111.890625 1062.667969 120.519531 1058.960938 129.65625 C 1056.78125 135.066406 1053.625 135.316406 1050.15625 132.660156 C 1017.640625 107.761719 990.304688 67.613281 945.570312 65.980469 C 922 65.121094 902.632812 75.316406 880.4375 80.777344 C 855.871094 86.820312 831.460938 75.886719 808.199219 69.355469 C 788.035156 63.699219 766.175781 59.859375 745.355469 64.027344 C 723.109375 68.480469 708.542969 84.359375 694.546875 101.058594 C 679.882812 118.554688 660.730469 129.972656 638.203125 133.914062 C 629.558594 135.449219 627.371094 128.953125 625.339844 124.078125 C 618.914062 108.585938 610.234375 94.292969 603.042969 79.238281 C 599.988281 72.839844 600.796875 72.164062 607.207031 69.769531 Z M 607.207031 69.769531 "/>
<path style=" stroke:none;fill-rule:nonzero;fill:rgb(12.156863%,12.156863%,12.156863%);fill-opacity:1;" d="M 1023.0625 673.277344 C 1022.722656 673.640625 1021.816406 674.46875 1021.089844 675.132812 C 1018.816406 677.207031 1015.835938 679.925781 1012.9375 683.589844 C 1012.851562 683.667969 1012.761719 683.753906 1012.675781 683.832031 C 1011.308594 684.925781 1010.035156 686.140625 1008.871094 687.453125 C 1008.445312 687.835938 1008.035156 688.230469 1007.632812 688.632812 C 1005.210938 690.445312 1003.050781 692.578125 1001.199219 694.980469 C 998.066406 697.496094 995.710938 700.070312 993.980469 702.074219 C 991.296875 704.160156 989.167969 706.382812 987.476562 708.640625 L 987.328125 708.765625 L 986.859375 709.148438 L 986.550781 709.375 L 986.28125 709.578125 C 984.921875 710.585938 983.660156 711.703125 982.507812 712.917969 C 982.363281 713.050781 982.222656 713.183594 982.078125 713.316406 C 981.324219 713.949219 980.59375 714.628906 979.894531 715.34375 C 979.78125 715.4375 979.667969 715.527344 979.554688 715.625 C 978.632812 716.308594 977.792969 717.109375 976.957031 717.902344 C 976.164062 713.042969 974.117188 706.625 968.757812 700.746094 C 962.183594 693.53125 953.300781 689.871094 942.359375 689.871094 L 878.257812 689.980469 C 887.070312 681.449219 895.871094 672.890625 904.644531 664.332031 C 907.96875 661.085938 913.503906 656.691406 919.367188 652.039062 C 933.59375 640.738281 949.242188 628.289062 959.125 613.207031 C 959.207031 614.15625 959.265625 615.089844 959.414062 616.097656 C 962.226562 634.621094 976.109375 646.542969 994.792969 646.542969 L 996.929688 646.546875 C 1015.921875 646.546875 1033.632812 646.304688 1050.574219 645.820312 C 1040.65625 655.027344 1031.546875 664.113281 1023.0625 673.277344 Z M 688.324219 662.585938 C 688.324219 662.585938 630.210938 717 619.234375 730.359375 C 613.273438 724.914062 605.234375 721.734375 595.921875 721.734375 C 595.671875 721.734375 595.417969 721.738281 595.15625 721.742188 C 595.5625 710.3125 595.414062 687.265625 594.914062 642.386719 C 594.839844 635.828125 594.761719 628.730469 594.699219 622.039062 C 599.394531 621.945312 603.859375 620.859375 607.882812 618.898438 C 609.582031 618.339844 611.195312 617.59375 612.765625 616.761719 C 612.898438 617.753906 613.050781 618.734375 613.21875 619.675781 C 618.097656 646.753906 640.796875 647.535156 643.367188 647.535156 C 645.566406 647.535156 693.050781 646.671875 705.355469 646.027344 Z M 1753.664062 786.886719 C 1752.488281 759.535156 1736.179688 747.460938 1721.300781 745.28125 C 1719.28125 744.988281 1717.257812 744.742188 1715.226562 744.546875 C 1712.394531 732.066406 1709.328125 719.628906 1706.347656 707.558594 C 1703.601562 696.429688 1655.511719 489.316406 1648.984375 482.53125 C 1644.40625 477.777344 1636.183594 472.097656 1623.015625 472.097656 C 1622.027344 472.097656 1620.980469 472.132812 1619.875 472.199219 C 1615.3125 472.480469 1429.675781 487.519531 1422.046875 489.90625 C 1408.542969 494.125 1397.1875 505.203125 1394.976562 519.5 C 1393.660156 528.027344 1382.835938 566.527344 1381.425781 571.515625 C 1380.433594 575.007812 1370.15625 612.667969 1366.1875 627.632812 C 1361.0625 646.964844 1355.769531 666.953125 1350.199219 686.367188 C 1346.453125 699.441406 1342.917969 712.664062 1339.5 725.535156 C 1339.066406 725.519531 1338.617188 725.511719 1338.15625 725.511719 C 1334.496094 725.511719 1330.949219 726.019531 1327.59375 727 C 1327.125 727.042969 1326.675781 727.152344 1326.214844 727.21875 C 1325.777344 718.484375 1322.648438 712 1319.753906 707.871094 C 1313.109375 698.375 1303.101562 693.140625 1291.59375 693.140625 C 1291.160156 693.140625 1234.695312 692.667969 1223.878906 692.660156 C 1226.296875 690.113281 1228.679688 687.578125 1231.039062 685.0625 C 1234.65625 681.207031 1282.488281 631.5 1295.265625 619.058594 C 1312.015625 602.820312 1316.222656 590.644531 1316.617188 564.175781 C 1316.792969 555.945312 1320.578125 524.785156 1307.640625 510.582031 C 1300.167969 502.371094 1289.394531 497.851562 1277.308594 497.851562 C 1276.613281 497.851562 1042.667969 507.472656 1003.910156 507.472656 C 1000.359375 507.472656 986.867188 508.363281 982.527344 510.359375 C 974.90625 512.761719 968.722656 517.453125 964.523438 523.640625 C 962.921875 520.71875 961.074219 518.390625 959.363281 516.664062 C 952.066406 509.3125 936.332031 509.535156 926.75 508.859375 C 908.59375 507.589844 882.925781 508.335938 867.546875 519.949219 C 858.828125 526.53125 855.910156 531.546875 853.394531 536.570312 L 848.179688 546.980469 L 843.484375 537.28125 C 832.789062 515.203125 819.515625 512.613281 788.914062 512.613281 C 780.527344 512.613281 653.425781 508.566406 653.425781 508.566406 C 649.898438 506.460938 648.808594 501.582031 637.46875 501.582031 C 626.636719 501.582031 621.195312 504.921875 617.652344 510.503906 C 608.171875 502.296875 596.96875 501.839844 587.820312 501.554688 C 586.527344 501.511719 410.105469 491.574219 407.007812 491.574219 C 401.175781 491.574219 395.398438 493.335938 390.496094 496.75 C 382.984375 501.980469 378.394531 510.457031 378.117188 519.601562 C 378.09375 520.261719 377.984375 521.828125 377.847656 523.609375 C 375.601562 520.996094 373.195312 518.421875 370.453125 515.914062 C 343.351562 491.144531 305.753906 487.660156 280.875 485.359375 C 218.175781 479.554688 54.539062 462.382812 44.460938 462.382812 C 28.886719 462.382812 16.925781 466.996094 8.90625 476.105469 C 1.71875 484.269531 -0.492188 494.34375 0.203125 504.949219 C 1.234375 520.546875 2.617188 580.332031 12.25 590.429688 C 17.796875 596.25 26.792969 598.871094 34.554688 599.796875 C 33.554688 625.878906 34.726562 733.9375 35.027344 745.710938 C 27.371094 746.667969 12.601562 748.597656 4.292969 758.910156 C -3.664062 768.78125 2.75 850.074219 6.101562 858.304688 C 14.914062 879.953125 33.160156 879.78125 46.582031 879.78125 C 79.859375 879.78125 223.722656 864.078125 232.96875 860.296875 C 233.746094 859.980469 234.507812 859.628906 235.25 859.246094 C 241.128906 856.21875 254.707031 846.863281 253.886719 825.320312 C 253.785156 822.839844 250.066406 775.988281 250.175781 771.355469 C 250.289062 766.597656 248.894531 754.246094 239.136719 744.253906 C 236.039062 741.082031 236.730469 736.601562 229.78125 734.8125 C 229.78125 734.8125 241.570312 734.824219 241.816406 734.816406 C 241.816406 734.816406 275.566406 734.121094 282.796875 733.363281 C 287.011719 732.917969 310.667969 730.855469 313.550781 729.796875 C 334.925781 726.621094 352.566406 719.367188 367.453125 707.636719 C 387.570312 691.757812 398.453125 671.933594 399.824219 648.699219 C 400.566406 635.867188 400.597656 625.335938 399.933594 615.527344 C 399.917969 615.296875 399.917969 615.050781 399.902344 614.820312 C 403.683594 616.324219 407.730469 617.144531 412.039062 617.144531 C 412.039062 630.121094 412.074219 643.054688 412.109375 655.730469 C 412.144531 668.761719 412.179688 681.785156 412.179688 694.8125 C 412.183594 699.808594 412.203125 704.800781 412.222656 709.792969 C 412.242188 714.992188 412.265625 720.28125 412.261719 725.574219 C 402.882812 726.289062 392.6875 727.824219 386.671875 734.214844 C 379.992188 739.496094 375.367188 751.109375 376.660156 767.007812 C 377.605469 779.304688 376.714844 811.910156 376.640625 815.257812 C 376.339844 827.527344 381.523438 835.496094 385.921875 840.003906 C 392.085938 846.324219 400.613281 849.804688 409.933594 849.804688 C 410.289062 849.804688 410.652344 849.796875 411.023438 849.789062 C 416.03125 849.636719 596.640625 842.1875 603.71875 839.746094 C 607.207031 838.542969 610.453125 836.957031 613.355469 835.035156 C 616.363281 833.046875 618.820312 830.851562 620.886719 828.546875 C 626.398438 834.421875 633.90625 838.476562 643.605469 838.476562 C 643.695312 838.476562 643.792969 838.476562 643.882812 838.46875 C 679.851562 838.132812 918.273438 833.902344 924.136719 835.578125 C 928.722656 836.894531 952.511719 837.769531 966.941406 828.628906 C 977.511719 837.101562 992.535156 836.824219 1008.070312 836.230469 C 1017.675781 835.867188 1273.296875 846.660156 1284.0625 846.660156 C 1287.933594 846.660156 1291.683594 846.148438 1295.273438 845.140625 C 1300.734375 844.46875 1305.144531 842.734375 1308.660156 840.710938 C 1312.347656 843.976562 1316.84375 846.554688 1322.160156 848.167969 C 1327.109375 849.640625 1332.078125 850.339844 1337.480469 850.339844 C 1341.472656 850.339844 1424.816406 855.511719 1425.511719 855.511719 L 1476.699219 855.484375 C 1482.777344 855.480469 1488.691406 853.5625 1493.613281 850.003906 C 1502.570312 843.527344 1507.726562 833.308594 1507.929688 821.753906 C 1510.515625 811.152344 1511.964844 800.90625 1513.367188 790.996094 C 1513.710938 788.578125 1514.046875 786.195312 1514.390625 783.855469 C 1519.765625 784.183594 1525.351562 784.457031 1531.226562 784.679688 C 1531.8125 788.265625 1532.449219 791.773438 1533.082031 795.234375 C 1534.402344 802.488281 1535.644531 809.339844 1536.175781 815.796875 C 1539.707031 859.117188 1562.171875 866.816406 1576.242188 867.28125 C 1578.964844 867.628906 1585.609375 868.511719 1592.578125 869.4375 C 1673.328125 880.171875 1705.15625 883.976562 1714.195312 883.976562 C 1717.113281 883.976562 1726.847656 886.128906 1731.910156 883.976562 C 1758.066406 872.867188 1754.097656 797.050781 1753.664062 786.882812 Z M 1753.664062 786.886719 "/>
<path style=" stroke:none;fill-rule:nonzero;fill:rgb(97.647059%,84.313725%,13.72549%);fill-opacity:1;" d="M 1296.425781 808.695312 C 1297.15625 814.421875 1295.023438 816.773438 1289.46875 816.511719 C 1283.300781 819.675781 993.023438 808.664062 986.152344 807.347656 C 980.605469 806.289062 983.1875 767.738281 983.632812 754.484375 C 983.746094 751.050781 985.984375 749.039062 988.445312 747.003906 C 1000.984375 736.636719 1142.074219 597.742188 1145.125 592.484375 C 1118.710938 593.441406 1106.6875 593.609375 1087.890625 594.03125 C 1088.257812 599.738281 1088.652344 605.429688 1088.921875 611.136719 C 1089.019531 613.667969 1087.617188 614.824219 1085.101562 615.410156 C 1079.722656 616.65625 1019.515625 617.65625 994.792969 617.636719 C 990.148438 617.636719 988.632812 615.984375 988.003906 611.828125 C 987.410156 607.855469 988.972656 563.242188 987.457031 544.832031 C 986.523438 533.507812 1003.183594 534.339844 1009.910156 534.261719 C 1034.3125 533.988281 1274.902344 526.839844 1276.351562 526.78125 C 1296.742188 525.9375 1290.558594 554.945312 1289.316406 564.976562 C 1287.605469 578.761719 1284.773438 588.96875 1275.109375 598.34375 C 1256.710938 616.25 1239.125 635.007812 1221.210938 653.425781 C 1209.75 665.242188 1198.84375 677.652344 1186.824219 688.859375 C 1167.761719 706.652344 1150.058594 725.84375 1130.390625 742.960938 C 1129.347656 743.878906 1128.335938 744.816406 1127.390625 745.804688 C 1126.441406 746.785156 1125.191406 747.894531 1125.722656 749.347656 C 1126.414062 751.140625 1128.34375 750.816406 1129.839844 750.820312 C 1136.527344 750.890625 1143.199219 750.867188 1149.867188 750.878906 C 1163.605469 750.929688 1177.332031 750.980469 1191.082031 751.03125 C 1192.003906 751.035156 1190.164062 732.328125 1190.316406 730.441406 C 1191.167969 719.890625 1204.351562 721.277344 1211.828125 721.546875 C 1216.746094 721.722656 1279.832031 722.429688 1291.269531 722.050781 C 1293.6875 721.96875 1294.9375 722.820312 1296.089844 724.472656 C 1297.394531 726.328125 1297.550781 728.507812 1297.332031 730.679688 C 1296.089844 743.222656 1294.695312 795.320312 1296.429688 808.695312 Z M 1296.425781 808.695312 "/>
<path style=" stroke:none;fill-rule:nonzero;fill:rgb(97.647059%,84.313725%,13.72549%);fill-opacity:1;" d="M 643.613281 809.566406 C 640.820312 809.578125 638.261719 802.261719 638.195312 798.714844 C 637.988281 788.351562 638.4375 777.972656 638.542969 767.597656 C 638.625 757.460938 637.195312 755.675781 642.246094 747.6875 C 647.074219 740.046875 657.136719 733.207031 663.652344 726.882812 C 678.589844 712.359375 693.527344 697.839844 708.46875 683.316406 C 723.402344 668.800781 738.335938 654.285156 753.269531 639.765625 C 766.808594 626.609375 785.746094 613.027344 795.882812 597.292969 C 788.308594 589.734375 738.03125 592.683594 740.152344 608.675781 C 740.300781 609.773438 740.136719 615.773438 736.527344 616.273438 C 724.835938 617.894531 656.429688 618.777344 649.15625 618.550781 C 646.398438 618.46875 642.605469 617.605469 641.453125 614.628906 C 639.585938 609.785156 640.960938 555.433594 640.910156 542.539062 C 640.898438 539.703125 641.09375 536.632812 640.71875 533.8125 C 640.484375 532.042969 648.910156 532.996094 652.828125 533.058594 C 681.871094 533.539062 708.796875 534.714844 737.832031 533.8125 C 746.984375 533.527344 808.589844 527.640625 817.472656 549.882812 C 826.066406 571.40625 837.675781 591.601562 847.78125 612.457031 C 850.796875 605.132812 873.429688 561.117188 879.242188 549.507812 C 881.066406 545.863281 883.058594 543.023438 885.035156 539.457031 C 889.554688 531.328125 911.757812 534.335938 926.363281 533.960938 C 930.042969 533.863281 938.6875 533.503906 939.351562 534.171875 C 940.039062 534.863281 940.625 584.277344 939.089844 589.050781 C 932.667969 608.972656 812.128906 713.703125 775.5625 748.355469 C 798.117188 748.203125 820.664062 748.050781 843.21875 747.902344 C 847.074219 739.121094 839.308594 725.984375 847.269531 720.640625 C 849.722656 718.996094 852.863281 718.933594 855.8125 718.929688 C 884.636719 718.878906 913.457031 718.832031 942.277344 718.78125 C 944.105469 718.78125 946.164062 718.871094 947.398438 720.222656 C 948.476562 721.410156 948.550781 723.171875 948.5625 724.777344 C 948.78125 752.945312 949.757812 807.449219 949.222656 809.277344 C 948.691406 811.105469 739.988281 808.65625 643.613281 809.566406 Z M 643.613281 809.566406 "/>
<path style=" stroke:none;fill-rule:nonzero;fill:rgb(97.647059%,84.313725%,13.72549%);fill-opacity:1;" d="M 597.417969 810.921875 C 596.550781 811.492188 595.519531 811.996094 594.292969 812.414062 C 586.253906 815.191406 415.484375 820.730469 410.226562 820.890625 C 406.488281 820.996094 405.460938 819.136719 405.539062 815.875 C 405.773438 806.292969 405.230469 765.285156 405.9375 761.949219 C 406.863281 757.578125 411.476562 754.304688 415.839844 754.363281 C 433.410156 754.597656 440.863281 758.609375 441.089844 739.414062 C 441.265625 724.550781 441.082031 709.675781 441.082031 694.8125 C 441.082031 660.96875 440.839844 627.113281 440.984375 593.269531 C 441.007812 588.867188 439.320312 587.933594 435.511719 588.042969 C 427.6875 588.226562 416.183594 588.332031 408.34375 588.46875 C 396.703125 588.667969 395.398438 520.878906 406.992188 520.410156 C 432.261719 519.394531 558.589844 526.132812 586.699219 530.441406 C 600.667969 532.585938 604.566406 530.375 604.652344 544.503906 C 604.742188 558.226562 604.507812 571.328125 604.652344 585.054688 C 604.691406 588.484375 600.5625 592 596.410156 591.671875 C 595.105469 594.03125 574.371094 591.707031 565.890625 591.75 C 564.871094 591.757812 564.78125 733.722656 565.359375 737.964844 C 567.640625 754.683594 582.382812 751.355469 595.042969 750.671875 C 599.464844 750.433594 601.167969 751.835938 601.289062 756.59375 C 601.589844 767.445312 601.945312 778.3125 601.765625 789.167969 C 601.59375 799.28125 603.488281 806.910156 597.417969 810.921875 Z M 597.417969 810.921875 "/>
<path style=" stroke:none;fill-rule:nonzero;fill:rgb(97.647059%,84.313725%,13.72549%);fill-opacity:1;" d="M 29.90625 847.242188 C 27.230469 835.988281 23.015625 804.085938 24.164062 780.191406 C 24.578125 771.511719 57.15625 773.390625 65.507812 771.335938 C 63.917969 741.5 63.628906 613.136719 64.976562 575.992188 C 65.097656 572.589844 64.390625 570.828125 60.902344 570.5625 C 47.347656 569.523438 30.546875 577.476562 28.917969 558.390625 C 27.472656 541.492188 21.640625 496.742188 30.183594 492.40625 C 35.835938 489.539062 50.363281 492.011719 56.375 492.527344 C 62.511719 493.058594 68.558594 494.511719 74.636719 495.09375 C 142.484375 501.574219 210.347656 507.863281 278.210938 514.148438 C 304.023438 516.535156 331.820312 519.765625 350.957031 537.253906 C 367.015625 551.933594 369.992188 572.910156 370.4375 593.65625 C 371.003906 620.226562 376.808594 646.433594 361.359375 670.410156 C 333.222656 714.085938 273.542969 708.234375 228.675781 706.03125 C 225.128906 705.855469 189.613281 703.496094 189.355469 705.847656 C 187.925781 718.710938 188.652344 756.160156 188.144531 761.902344 C 187.734375 766.574219 189.363281 766.289062 192.453125 765.882812 C 200.597656 764.859375 208.753906 763.800781 216.894531 762.851562 C 224.265625 762.03125 225.289062 762.835938 225.117188 770.058594 C 224.773438 784.359375 224.824219 821.9375 225.003906 826.417969 C 225.113281 829.199219 225.011719 832.007812 222.03125 833.539062 C 216.863281 835.652344 33.347656 861.71875 29.90625 847.242188 Z M 29.90625 847.242188 "/>
<path style=" stroke:none;fill-rule:nonzero;fill:rgb(97.647059%,84.313725%,13.72549%);fill-opacity:1;" d="M 1488.019531 766.808594 C 1488.582031 762.519531 1489.632812 752.421875 1494.351562 752.910156 C 1499.074219 753.398438 1531.382812 755.847656 1550.34375 756.253906 C 1557.0625 756.402344 1557.488281 758.359375 1557.929688 764.96875 C 1559.015625 781.328125 1563.652344 797.117188 1564.984375 813.449219 C 1565.90625 824.75 1568.0625 838.769531 1578.070312 838.390625 C 1579.230469 838.355469 1711.558594 856.578125 1715.339844 854.972656 C 1724.199219 851.207031 1731.289062 775.960938 1717.113281 773.886719 C 1708.46875 772.621094 1700 772.675781 1691.4375 773.503906 C 1690.914062 767.003906 1689.203125 760.632812 1687.796875 754.320312 C 1682.261719 729.488281 1629.417969 514.832031 1629.667969 508.957031 C 1629.910156 502.664062 1627.878906 500.675781 1621.640625 501.054688 C 1613.640625 501.546875 1521.671875 509.972656 1509.070312 511.09375 C 1491.304688 512.679688 1447.523438 515.800781 1443.425781 516.054688 C 1436.871094 516.457031 1431.597656 516.125 1426.097656 520.320312 C 1423.730469 522.128906 1367.121094 734.386719 1361.5625 754.996094 C 1361.117188 756.640625 1347.296875 755.144531 1345.683594 755.042969 C 1328.382812 753.941406 1324.089844 753.113281 1323.9375 757.101562 C 1323.648438 764.824219 1324.136719 803.917969 1324.242188 815.371094 C 1324.273438 819.074219 1327.640625 819.621094 1330.542969 820.5 C 1338.742188 822.941406 1473.332031 830.289062 1475.789062 830.378906 C 1481.257812 830.578125 1485.640625 785.0625 1488.019531 766.808594 Z M 1488.019531 766.808594 "/>
<path style=" stroke:none;fill-rule:evenodd;fill:rgb(12.156863%,12.156863%,12.156863%);fill-opacity:1;" d="M 1544.144531 696.300781 C 1539.195312 695.785156 1507.824219 694.539062 1499.960938 696.085938 C 1492.640625 697.535156 1490.964844 696.167969 1492.394531 688.960938 C 1499.585938 652.699219 1504.492188 615.917969 1510.410156 579.433594 C 1511.109375 575.144531 1514.074219 561.648438 1515.929688 567.789062 C 1517.789062 573.933594 1549.09375 696.816406 1544.144531 696.300781 Z M 1544.144531 696.300781 "/>
<path style=" stroke:none;fill-rule:evenodd;fill:rgb(12.156863%,12.156863%,12.156863%);fill-opacity:1;" d="M 240.859375 647.007812 C 237.34375 650.410156 230.882812 647.878906 226.5625 647.8125 C 218.28125 647.683594 210 647.519531 201.71875 647.429688 C 197.886719 647.390625 194.074219 647.492188 190.25 647.539062 C 185.109375 647.59375 181.113281 646.867188 181.875 640.984375 C 183.285156 629.980469 181.109375 588.144531 180.804688 585.253906 C 180.511719 582.515625 180.730469 578.527344 183.980469 577.53125 C 186.84375 576.65625 226.769531 580.585938 235.710938 580.214844 C 240.441406 580.019531 241.984375 581.019531 241.910156 586.140625 C 241.757812 596.617188 244.007812 642.332031 241.789062 645.855469 C 241.507812 646.300781 241.199219 646.679688 240.859375 647.007812 Z M 240.859375 647.007812 "/>
<path style=" stroke:none;fill-rule:nonzero;fill:rgb(97.647059%,84.313725%,13.72549%);fill-opacity:1;" d="M 891.679688 462.652344 C 876.058594 493.417969 848.144531 572.507812 848.144531 572.507812 C 848.144531 572.507812 834.464844 539.621094 831.214844 533.125 C 806.160156 483.050781 651.421875 177.855469 644.964844 163.820312 C 643.421875 160.472656 641.523438 157.25 640.011719 153.882812 C 635.722656 144.359375 636.199219 143.179688 646.582031 142.585938 C 656.773438 142.003906 665.507812 137.539062 674.730469 133.953125 C 703.941406 122.628906 721.175781 89.414062 755.179688 89.597656 C 796.324219 89.816406 835.515625 112.472656 877.050781 101.332031 C 913.148438 91.648438 952.953125 67.90625 986.152344 98.066406 C 1005.132812 115.300781 1025.164062 131.421875 1046.40625 145.898438 C 1049.585938 148.082031 1049.746094 150.121094 1047.976562 153.128906 C 1036.902344 172.003906 1027.945312 191.96875 1018.59375 211.6875 C 1011.300781 227.042969 1002.496094 241.566406 995.140625 256.875 C 972.921875 303.09375 949.261719 348.5625 926.191406 394.332031 C 914.6875 417.117188 903.21875 439.902344 891.679688 462.652344 Z M 891.679688 462.652344 "/>
<path style=" stroke:none;fill-rule:evenodd;fill:rgb(12.156863%,12.156863%,12.156863%);fill-opacity:1;" d="M 939.933594 104.234375 C 959.847656 104.417969 974.273438 111.40625 985 126.140625 C 989.539062 132.359375 994.253906 138.21875 994.167969 146.492188 C 994.136719 148.242188 994.957031 150.019531 993.007812 151.132812 C 990.921875 152.363281 989.300781 151.375 987.894531 149.765625 C 968.691406 127.796875 942.183594 116.507812 913.359375 123.664062 C 909.640625 124.589844 898.851562 127.472656 905.4375 120.253906 C 915.210938 109.542969 927.59375 104.824219 939.933594 104.234375 Z M 939.933594 104.234375 "/>
<path style=" stroke:none;fill-rule:evenodd;fill:rgb(12.156863%,12.156863%,12.156863%);fill-opacity:1;" d="M 881.03125 292.011719 C 882.183594 294.011719 883.773438 295.878906 884.433594 298.035156 C 891.488281 320.910156 923.984375 304.171875 936.964844 297.21875 C 944.621094 293.121094 952.25 287.996094 958.5 281.914062 C 959.292969 281.144531 960.410156 280.714844 961.578125 280.015625 C 962.609375 283.5625 961.808594 286.132812 959.976562 288.972656 C 953.023438 299.804688 943.8125 307.761719 932.207031 313.339844 C 922.824219 317.839844 913.328125 321.410156 902.875 322.515625 C 893.066406 323.554688 886.871094 317.199219 881.355469 311.335938 C 876.597656 306.289062 877.511719 298.808594 879.457031 292.21875 C 879.976562 292.164062 880.5 292.09375 881.027344 292.011719 Z M 881.03125 292.011719 "/>
<path style=" stroke:none;fill-rule:evenodd;fill:rgb(12.156863%,12.156863%,12.156863%);fill-opacity:1;" d="M 863.066406 396.476562 C 867.136719 400.761719 868.046875 405.929688 867.316406 410.847656 C 865.074219 425.980469 857.703125 437.957031 843.585938 444.871094 C 835.382812 448.890625 818.65625 440.25 817.25 431.542969 C 817.039062 430.253906 817.5625 428.699219 818.652344 428.734375 C 820.445312 428.828125 821.832031 427.1875 824.117188 428.664062 C 840.972656 439.421875 856.253906 413.824219 860.652344 400.820312 C 861.136719 399.382812 862.121094 398.128906 863.066406 396.476562 Z M 863.066406 396.476562 "/>
<path style=" stroke:none;fill-rule:evenodd;fill:rgb(12.156863%,12.156863%,12.156863%);fill-opacity:1;" d="M 871.675781 261.90625 C 870.132812 264.308594 868.171875 265.316406 866.1875 265.777344 C 849.328125 269.617188 833.035156 269.765625 818.648438 258.113281 C 811.105469 252.003906 808.9375 239.945312 813.816406 229.621094 C 815.386719 226.261719 817.488281 223.175781 819.242188 219.917969 C 820.0625 218.410156 821.203125 217.117188 822.863281 217.558594 C 825.300781 218.214844 824.476562 220.699219 824.046875 221.976562 C 812.554688 256.035156 851.285156 255.007812 871.675781 261.90625 Z M 871.675781 261.90625 "/>
<path style=" stroke:none;fill-rule:evenodd;fill:rgb(86.27451%,20.784314%,16.078431%);fill-opacity:1;" d="M 684.472656 191.21875 C 684.402344 173.414062 692.167969 156.167969 707.554688 145.3125 C 715.046875 140.027344 725.984375 134.097656 735.140625 132.601562 C 761.246094 128.355469 783.996094 134.546875 800.742188 155.386719 C 815.46875 173.6875 818.910156 195.800781 807.40625 218.410156 C 793.589844 245.554688 759.503906 259.878906 730.484375 250.648438 C 711.285156 244.542969 694.992188 231.171875 688.109375 211.855469 C 685.707031 205.117188 684.5 198.128906 684.472656 191.21875 Z M 684.472656 191.21875 "/>
<path style=" stroke:none;fill-rule:evenodd;fill:rgb(86.27451%,20.784314%,16.078431%);fill-opacity:1;" d="M 943.628906 144.554688 C 955.839844 145.878906 972.585938 153.578125 984.941406 170.84375 C 992.300781 181.109375 995.394531 191.675781 995.515625 204.269531 C 995.722656 223.976562 987.476562 238.6875 972.269531 249.976562 C 955.820312 262.175781 937.488281 266.957031 917.351562 261.285156 C 895.324219 255.058594 877.832031 242.980469 871.425781 219.871094 C 865.039062 196.75 871.546875 176.855469 889.378906 160.554688 C 902.511719 148.542969 917.808594 143.390625 943.628906 144.554688 Z M 943.628906 144.554688 "/>
<path style=" stroke:none;fill-rule:evenodd;fill:rgb(86.27451%,20.784314%,16.078431%);fill-opacity:1;" d="M 814.460938 295.164062 C 837.3125 295.328125 857.746094 305.539062 867.972656 326.761719 C 873.179688 337.5625 869.046875 358.238281 863.722656 368.339844 C 856.714844 381.636719 842.964844 391.105469 827.777344 394.882812 C 802.855469 401.089844 776.035156 390.527344 766.460938 368.695312 C 754.371094 341.144531 760.40625 304.652344 796.320312 297.046875 C 802.441406 295.753906 808.535156 295.121094 814.460938 295.164062 Z M 814.460938 295.164062 "/>
</g>
</svg>
